<svg height="480pt" viewBox="0 -40 480 480" width="480pt" xmlns="http://www.w3.org/2000/svg"><path d="m8 8v192h32l24 32 24-32h112v-32h80v-160zm0 0" fill="#a5d0f2"/><g fill="#4b7493"><path d="m472 160h-184v-152c0-4.417969-3.582031-8-8-8h-272c-4.417969 0-8 3.582031-8 8v192c0 4.417969 3.582031 8 8 8h28l21.601562 28.800781c1.507813 2.011719 3.878907 3.199219 6.398438 3.199219s4.890625-1.1875 6.398438-3.199219l21.601562-28.800781h100v152c0 4.417969 3.582031 8 8 8h188l21.601562 28.800781c1.507813 2.011719 3.878907 3.199219 6.398438 3.199219s4.890625-1.1875 6.398438-3.199219l21.601562-28.800781h28c4.417969 0 8-3.582031 8-8v-192c0-4.417969-3.582031-8-8-8zm-384 32c-2.519531 0-4.890625 1.1875-6.398438 3.199219l-17.601562 23.464843-17.601562-23.464843c-1.507813-2.011719-3.878907-3.199219-6.398438-3.199219h-24v-176h256v144h-72c-4.417969 0-8 3.582031-8 8v24zm376 160h-24c-2.519531 0-4.890625 1.1875-6.398438 3.199219l-17.601562 23.464843-17.601562-23.464843c-1.507813-2.011719-3.878907-3.199219-6.398438-3.199219h-184v-176h256zm0 0"/><path d="m40 48h208c4.417969 0 8-3.582031 8-8s-3.582031-8-8-8h-208c-4.417969 0-8 3.582031-8 8s3.582031 8 8 8zm0 0"/><path d="m40 80h208c4.417969 0 8-3.582031 8-8s-3.582031-8-8-8h-208c-4.417969 0-8 3.582031-8 8s3.582031 8 8 8zm0 0"/><path d="m40 112h208c4.417969 0 8-3.582031 8-8s-3.582031-8-8-8h-208c-4.417969 0-8 3.582031-8 8s3.582031 8 8 8zm0 0"/><path d="m256 136c0-4.417969-3.582031-8-8-8h-208c-4.417969 0-8 3.582031-8 8s3.582031 8 8 8h208c4.417969 0 8-3.582031 8-8zm0 0"/><path d="m176 160h-136c-4.417969 0-8 3.582031-8 8s3.582031 8 8 8h136c4.417969 0 8-3.582031 8-8s-3.582031-8-8-8zm0 0"/><path d="m224 200c0 4.417969 3.582031 8 8 8h208c4.417969 0 8-3.582031 8-8s-3.582031-8-8-8h-208c-4.417969 0-8 3.582031-8 8zm0 0"/><path d="m440 224h-208c-4.417969 0-8 3.582031-8 8s3.582031 8 8 8h208c4.417969 0 8-3.582031 8-8s-3.582031-8-8-8zm0 0"/><path d="m440 256h-208c-4.417969 0-8 3.582031-8 8s3.582031 8 8 8h208c4.417969 0 8-3.582031 8-8s-3.582031-8-8-8zm0 0"/><path d="m440 288h-208c-4.417969 0-8 3.582031-8 8s3.582031 8 8 8h208c4.417969 0 8-3.582031 8-8s-3.582031-8-8-8zm0 0"/><path d="m368 320h-136c-4.417969 0-8 3.582031-8 8s3.582031 8 8 8h136c4.417969 0 8-3.582031 8-8s-3.582031-8-8-8zm0 0"/><path d="m440 320h-48c-4.417969 0-8 3.582031-8 8s3.582031 8 8 8h48c4.417969 0 8-3.582031 8-8s-3.582031-8-8-8zm0 0"/></g></svg>