<svg xmlns="http://www.w3.org/2000/svg" width="29.93" height="29.73" viewBox="0 0 29.93 29.73">
  <g id="dashboard" transform="translate(-5.239 -5.27)">
    <g id="Group_176" data-name="Group 176" transform="translate(5.239 5.27)">
      <g id="Group_175" data-name="Group 175" transform="translate(0 0)">
        <path id="Path_1161" data-name="Path 1161" d="M12.3,12.355V7.109a1.386,1.386,0,0,0-1.386-1.386H7.053A1.386,1.386,0,0,0,5.667,7.109V10.97a1.386,1.386,0,0,0,1.386,1.386Zm-5.246-9.4h3.861a4.157,4.157,0,0,1,4.157,4.157v6.632a1.386,1.386,0,0,1-1.386,1.386H7.053A4.157,4.157,0,0,1,2.9,10.97V7.109A4.157,4.157,0,0,1,7.053,2.952ZM20.084,5.427v6.928h6.928A1.386,1.386,0,0,0,28.4,10.97V5.427a1.386,1.386,0,0,0-1.386-1.386H21.47A1.386,1.386,0,0,0,20.084,5.427ZM27.012,1.27a4.157,4.157,0,0,1,4.157,4.157V10.97a4.157,4.157,0,0,1-4.157,4.157H18.7a1.386,1.386,0,0,1-1.386-1.386V5.427A4.157,4.157,0,0,1,21.47,1.27ZM20.084,19.915v5.254a1.386,1.386,0,0,0,1.386,1.386h3.868a1.386,1.386,0,0,0,1.386-1.386V21.3a1.386,1.386,0,0,0-1.386-1.386Zm5.254,9.411H21.47a4.157,4.157,0,0,1-4.157-4.157V18.529A1.386,1.386,0,0,1,18.7,17.144h6.639A4.157,4.157,0,0,1,29.495,21.3v3.868A4.157,4.157,0,0,1,25.338,29.326ZM12.324,19.915H5.4A1.386,1.386,0,0,0,4.01,21.3v5.543A1.386,1.386,0,0,0,5.4,28.229h5.543a1.386,1.386,0,0,0,1.386-1.386ZM5.4,31a4.157,4.157,0,0,1-4.157-4.157V21.3A4.157,4.157,0,0,1,5.4,17.144H13.71A1.386,1.386,0,0,1,15.1,18.529v8.314A4.157,4.157,0,0,1,10.939,31Z" transform="translate(-1.239 -1.27)" fill="#fff"/>
      </g>
    </g>
  </g>
</svg>
