<svg xmlns="http://www.w3.org/2000/svg" width="19.224" height="27.943" viewBox="0 0 19.224 27.943">
  <g id="Location" transform="translate(-17.323 -2.5)">
    <g id="Group_179" data-name="Group 179" transform="translate(17.323 2.5)">
      <path id="Path_1188" data-name="Path 1188" d="M36.435,73.789l-2-5.471A1.69,1.69,0,0,0,32.817,67.2h-.559c-.441.677-.882,1.324-1.324,1.971h1.677l1.824,4.941H19.4l1.824-4.941h1.677c-.441-.647-.882-1.324-1.324-1.971h-.529a1.748,1.748,0,0,0-1.618,1.118l-2,5.471a1.726,1.726,0,0,0,1.618,2.324h15.8a1.7,1.7,0,0,0,1.412-.735A1.785,1.785,0,0,0,36.435,73.789Z" transform="translate(-17.323 -48.17)" fill="#fff"/>
      <path id="Path_1189" data-name="Path 1189" d="M31.089,24.766c2.324-3.206,7.177-10.354,7.177-13.883a8.383,8.383,0,0,0-16.766,0c0,3.53,4.853,10.677,7.177,13.883A1.486,1.486,0,0,0,31.089,24.766ZM26.236,10.883a3.647,3.647,0,1,1,3.647,3.647A3.647,3.647,0,0,1,26.236,10.883Z" transform="translate(-20.272 -2.5)" fill="#fff"/>
    </g>
  </g>
</svg>
