<svg xmlns="http://www.w3.org/2000/svg" width="18" height="14.824" viewBox="0 0 18 14.824">
  <g id="logout" transform="translate(-16 -22)">
    <g id="Group_193" data-name="Group 193" transform="translate(16 22)">
      <g id="Group_192" data-name="Group 192" transform="translate(0 0)">
        <path id="Path_1222" data-name="Path 1222" d="M12.653,12.653a1.059,1.059,0,0,1-1.5-1.5,5.294,5.294,0,1,0-7.487,0,1.059,1.059,0,0,1-1.5,1.5,7.412,7.412,0,1,1,10.482,0Zm-4.6-7.62,2.472,2.427a1.057,1.057,0,0,1-1.492,1.5l-.01-.01c-.306-.311-.556-.209-.556.23v7.766A1.059,1.059,0,0,1,7.406,18h.012a1.058,1.058,0,0,1-1.061-1.057V9.177c0-.442-.249-.542-.556-.23l-.01.01A1.057,1.057,0,0,1,4.3,7.459L6.737,5.036A.939.939,0,0,1,8.053,5.032Z" transform="translate(18) rotate(90)" fill-rule="evenodd"/>
      </g>
    </g>
  </g>
</svg>
