<svg xmlns="http://www.w3.org/2000/svg" width="26.818" height="24.463" viewBox="0 0 26.818 24.463">
  <g id="Push_message" data-name="Push message" transform="translate(311.4 627.2)">
    <g id="Group_185" data-name="Group 185" transform="translate(-311.4 -627.2)">
      <path id="Path_1211" data-name="Path 1211" d="M3.622,18.461V20.7a.944.944,0,0,0,.3.693.925.925,0,0,0,.637.249.967.967,0,0,0,.665-.277l2.854-2.854h8.644A2.53,2.53,0,0,0,19.247,16V8.321A2.53,2.53,0,0,0,16.726,5.8H4.121A2.53,2.53,0,0,0,1.6,8.321v7.646A2.552,2.552,0,0,0,3.622,18.461ZM5.091,9.346H15.757V11.23H5.091Zm0,3.74h7.148V15H5.091Z" transform="translate(-1.6 -5.8)" fill="#fff"/>
      <path id="Path_1212" data-name="Path 1212" d="M49.826,37H45.006v1.524a4.339,4.339,0,0,1-4.35,4.35H34.7v4.294a2.53,2.53,0,0,0,2.521,2.521h8.644l2.854,2.854a.967.967,0,0,0,.665.277.878.878,0,0,0,.637-.249.944.944,0,0,0,.3-.693V49.633a2.55,2.55,0,0,0,2.022-2.466V39.521A2.53,2.53,0,0,0,49.826,37Z" transform="translate(-25.53 -28.356)" fill="#fff"/>
    </g>
  </g>
</svg>
