<svg xmlns="http://www.w3.org/2000/svg" width="39.134" height="26" viewBox="0 0 39.134 26">
  <g id="Request" transform="translate(-9.486 -17.7)">
    <path id="Path_1185" data-name="Path 1185" d="M40.534,21.927a1.615,1.615,0,0,1-1.61,1.61H31.838a1.615,1.615,0,0,1-1.61-1.61h0a1.615,1.615,0,0,1,1.61-1.61h7.086A1.642,1.642,0,0,1,40.534,21.927Zm-1.61,4.791H31.838a1.615,1.615,0,0,0-1.61,1.61h0a1.615,1.615,0,0,0,1.61,1.61h7.086a1.615,1.615,0,0,0,1.61-1.61h0A1.615,1.615,0,0,0,38.924,26.719Zm0,6.4H31.838a1.615,1.615,0,0,0-1.61,1.61h0a1.615,1.615,0,0,0,1.61,1.61h7.086a1.615,1.615,0,0,0,1.61-1.61h0A1.615,1.615,0,0,0,38.924,33.12ZM27.288,21.2V35.455a3.505,3.505,0,0,1-3.5,3.5H20.242v4.026a.693.693,0,0,1-1.208.483L14.525,39a.039.039,0,0,0-.04-.04H4.9a3.505,3.505,0,0,1-3.5-3.5V21.2a3.505,3.505,0,0,1,3.5-3.5H23.826A3.5,3.5,0,0,1,27.288,21.2Zm-6.8,13.769c0-3.5-1.933-6.442-4.59-7.247a3.19,3.19,0,0,0,1.691-2.818,3.221,3.221,0,1,0-4.751,2.818c-2.657.845-4.59,3.744-4.59,7.247Z" transform="translate(8.086 0)" fill="#fff"/>
  </g>
</svg>
