<svg xmlns="http://www.w3.org/2000/svg" width="22.045" height="22.045" viewBox="0 0 22.045 22.045">
  <path id="Settings" d="M17.719,7.871c-.144-.092-1.28-.77-1.73-.977l-.558-1.35c.166-.446.484-1.7.54-1.915a.6.6,0,0,0-.162-.558l-.88-.875a.6.6,0,0,0-.558-.162c-.166.038-1.44.36-1.915.54l-1.35-.558c-.2-.432-.857-1.539-.977-1.73A.6.6,0,0,0,9.619,0H8.381a.6.6,0,0,0-.509.281c-.092.144-.77,1.28-.977,1.73l-1.35.558c-.446-.166-1.7-.484-1.915-.54a.6.6,0,0,0-.558.162l-.875.88a.6.6,0,0,0-.162.558c.038.166.36,1.44.54,1.915l-.558,1.35c-.432.2-1.539.857-1.73.977A.6.6,0,0,0,0,8.381V9.617a.6.6,0,0,0,.281.509c.144.092,1.28.77,1.73.977l.558,1.35c-.166.446-.484,1.7-.54,1.915a.6.6,0,0,0,.162.558l.875.875a.6.6,0,0,0,.558.162c.166-.038,1.44-.36,1.915-.54l1.35.558c.2.432.857,1.539.977,1.73A.6.6,0,0,0,8.381,18H9.617a.6.6,0,0,0,.509-.281c.092-.144.77-1.28.977-1.73l1.35-.558c.446.166,1.7.484,1.915.54a.6.6,0,0,0,.558-.162l.875-.875a.6.6,0,0,0,.162-.558c-.038-.166-.36-1.44-.54-1.915l.558-1.35c.432-.2,1.539-.857,1.73-.977A.6.6,0,0,0,18,9.619V8.381a.594.594,0,0,0-.281-.509ZM9,12.919A3.922,3.922,0,1,1,12.926,9,3.922,3.922,0,0,1,9,12.919Z" transform="matrix(0.966, -0.259, 0.259, 0.966, 0, 4.659)"/>
</svg>
