<svg xmlns="http://www.w3.org/2000/svg" width="30.414" height="34.48" viewBox="0 0 30.414 34.48">
  <g id="Supervisor" transform="translate(-21.019 -17.099)">
    <path id="Path_1217" data-name="Path 1217" d="M51.342,58.44a17.408,17.408,0,0,0-7.872-8.134.493.493,0,0,0-.472.052A11,11,0,0,1,39.272,52.3L37.7,54.556l1.05,8.187-2.519,3.149-2.519-3.149,1.05-8.187-1.574-2.309A19.458,19.458,0,0,1,29.615,50.2a.4.4,0,0,0-.472-.052,17.265,17.265,0,0,0-8.029,8.029,1.106,1.106,0,0,0,.052,1,18.227,18.227,0,0,0,30.07.315A1.083,1.083,0,0,0,51.342,58.44Z" transform="translate(0 -15.678)" fill="#fff" fill-rule="evenodd"/>
    <path id="Path_1218" data-name="Path 1218" d="M42.211,17.1a8.685,8.685,0,1,0,8.659,8.764A8.757,8.757,0,0,0,42.211,17.1Z" transform="translate(-5.931)" fill="#fff" fill-rule="evenodd"/>
  </g>
</svg>
