<svg xmlns="http://www.w3.org/2000/svg" width="35.094" height="38" viewBox="0 0 35.094 38">
  <g id="user" transform="translate(-13.1 -10.8)">
    <path id="Path_1186" data-name="Path 1186" d="M37.757,33.161a11.181,11.181,0,1,1,11.157-11.2A11.171,11.171,0,0,1,37.757,33.161Zm0-18.547a7.366,7.366,0,1,0,7.39,7.343A7.4,7.4,0,0,0,37.757,14.614Z" transform="translate(-7.063)" fill="#fff"/>
    <path id="Path_1187" data-name="Path 1187" d="M46.38,69.153a1.913,1.913,0,0,1-1.907-1.907,13.779,13.779,0,1,0-27.558,0,1.907,1.907,0,1,1-3.814,0,17.546,17.546,0,0,1,35.092,0A1.8,1.8,0,0,1,46.38,69.153Z" transform="translate(0 -20.353)" fill="#fff"/>
  </g>
</svg>
